<svg width="282" height="63" viewBox="0 0 282 63" fill="none" xmlns="http://www.w3.org/2000/svg">
<g clip-path="url(#clip0)">
<path d="M29.425 17.467L33.517 25.21V56C28.011 56 22.505 56 17 56V25.21L21.092 17.467V6C23.87 6 26.648 6 29.426 6V17.467H29.425ZM19.84 45.192H30.677V32.336H19.84V45.192ZM30.676 48.032H19.84V53.158H30.677V48.032H30.676ZM26.584 8.841H23.932V18.156L19.84 25.9V29.495H30.677V25.9L26.585 18.156V8.841H26.584Z" fill="#5D55FA"/>
</g>
<path d="M67.835 39.31C67.995 39.31 68.135 39.375 68.255 39.505L69.41 40.75C68.53 41.77 67.46 42.565 66.2 43.135C64.95 43.705 63.435 43.99 61.655 43.99C60.115 43.99 58.715 43.725 57.455 43.195C56.195 42.655 55.12 41.905 54.23 40.945C53.34 39.975 52.65 38.815 52.16 37.465C51.67 36.115 51.425 34.63 51.425 33.01C51.425 31.39 51.68 29.905 52.19 28.555C52.7 27.205 53.415 26.045 54.335 25.075C55.265 24.105 56.375 23.355 57.665 22.825C58.955 22.285 60.38 22.015 61.94 22.015C63.47 22.015 64.82 22.26 65.99 22.75C67.16 23.24 68.19 23.905 69.08 24.745L68.12 26.08C68.06 26.18 67.98 26.265 67.88 26.335C67.79 26.395 67.665 26.425 67.505 26.425C67.325 26.425 67.105 26.33 66.845 26.14C66.585 25.94 66.245 25.72 65.825 25.48C65.405 25.24 64.88 25.025 64.25 24.835C63.62 24.635 62.845 24.535 61.925 24.535C60.815 24.535 59.8 24.73 58.88 25.12C57.96 25.5 57.165 26.055 56.495 26.785C55.835 27.515 55.32 28.405 54.95 29.455C54.58 30.505 54.395 31.69 54.395 33.01C54.395 34.35 54.585 35.545 54.965 36.595C55.355 37.645 55.88 38.535 56.54 39.265C57.21 39.985 57.995 40.535 58.895 40.915C59.805 41.295 60.785 41.485 61.835 41.485C62.475 41.485 63.05 41.45 63.56 41.38C64.08 41.3 64.555 41.18 64.985 41.02C65.425 40.86 65.83 40.66 66.2 40.42C66.58 40.17 66.955 39.875 67.325 39.535C67.495 39.385 67.665 39.31 67.835 39.31ZM86.0441 41.38L86.0291 43.75H72.7841V22.255H86.0291V24.625H75.6941V31.765H84.0641V34.045H75.6941V41.38H86.0441ZM102.294 41.305V43.75H90.0985V22.255H92.9935V41.305H102.294ZM117.704 41.305V43.75H105.509V22.255H108.404V41.305H117.704ZM132.334 35.77L128.959 27.025C128.859 26.765 128.754 26.465 128.644 26.125C128.534 25.775 128.429 25.405 128.329 25.015C128.119 25.825 127.904 26.5 127.684 27.04L124.309 35.77H132.334ZM138.394 43.75H136.144C135.884 43.75 135.674 43.685 135.514 43.555C135.354 43.425 135.234 43.26 135.154 43.06L133.144 37.87H123.499L121.489 43.06C121.429 43.24 121.314 43.4 121.144 43.54C120.974 43.68 120.764 43.75 120.514 43.75H118.264L126.859 22.255H129.799L138.394 43.75ZM147.177 32.665C148.017 32.665 148.757 32.565 149.397 32.365C150.047 32.155 150.587 31.865 151.017 31.495C151.457 31.115 151.787 30.665 152.007 30.145C152.227 29.625 152.337 29.05 152.337 28.42C152.337 27.14 151.917 26.175 151.077 25.525C150.237 24.875 148.977 24.55 147.297 24.55H144.117V32.665H147.177ZM157.107 43.75H154.527C153.997 43.75 153.607 43.545 153.357 43.135L147.777 35.455C147.607 35.215 147.422 35.045 147.222 34.945C147.032 34.835 146.732 34.78 146.322 34.78H144.117V43.75H141.222V22.255H147.297C148.657 22.255 149.832 22.395 150.822 22.675C151.812 22.945 152.627 23.34 153.267 23.86C153.917 24.38 154.397 25.01 154.707 25.75C155.017 26.48 155.172 27.3 155.172 28.21C155.172 28.97 155.052 29.68 154.812 30.34C154.572 31 154.222 31.595 153.762 32.125C153.312 32.645 152.757 33.09 152.097 33.46C151.447 33.83 150.707 34.11 149.877 34.3C150.247 34.51 150.567 34.815 150.837 35.215L157.107 43.75ZM171.025 25.615C170.935 25.765 170.835 25.88 170.725 25.96C170.625 26.03 170.5 26.065 170.35 26.065C170.18 26.065 169.98 25.98 169.75 25.81C169.52 25.64 169.23 25.455 168.88 25.255C168.54 25.045 168.125 24.855 167.635 24.685C167.155 24.515 166.57 24.43 165.88 24.43C165.23 24.43 164.655 24.52 164.155 24.7C163.665 24.87 163.25 25.105 162.91 25.405C162.58 25.705 162.33 26.06 162.16 26.47C161.99 26.87 161.905 27.305 161.905 27.775C161.905 28.375 162.05 28.875 162.34 29.275C162.64 29.665 163.03 30 163.51 30.28C164 30.56 164.55 30.805 165.16 31.015C165.78 31.215 166.41 31.425 167.05 31.645C167.7 31.865 168.33 32.115 168.94 32.395C169.56 32.665 170.11 33.01 170.59 33.43C171.08 33.85 171.47 34.365 171.76 34.975C172.06 35.585 172.21 36.335 172.21 37.225C172.21 38.165 172.05 39.05 171.73 39.88C171.41 40.7 170.94 41.415 170.32 42.025C169.71 42.635 168.955 43.115 168.055 43.465C167.165 43.815 166.15 43.99 165.01 43.99C163.61 43.99 162.34 43.74 161.2 43.24C160.06 42.73 159.085 42.045 158.275 41.185L159.115 39.805C159.195 39.695 159.29 39.605 159.4 39.535C159.52 39.455 159.65 39.415 159.79 39.415C159.92 39.415 160.065 39.47 160.225 39.58C160.395 39.68 160.585 39.81 160.795 39.97C161.005 40.13 161.245 40.305 161.515 40.495C161.785 40.685 162.09 40.86 162.43 41.02C162.78 41.18 163.175 41.315 163.615 41.425C164.055 41.525 164.55 41.575 165.1 41.575C165.79 41.575 166.405 41.48 166.945 41.29C167.485 41.1 167.94 40.835 168.31 40.495C168.69 40.145 168.98 39.73 169.18 39.25C169.38 38.77 169.48 38.235 169.48 37.645C169.48 36.995 169.33 36.465 169.03 36.055C168.74 35.635 168.355 35.285 167.875 35.005C167.395 34.725 166.845 34.49 166.225 34.3C165.605 34.1 164.975 33.9 164.335 33.7C163.695 33.49 163.065 33.25 162.445 32.98C161.825 32.71 161.275 32.36 160.795 31.93C160.315 31.5 159.925 30.965 159.625 30.325C159.335 29.675 159.19 28.875 159.19 27.925C159.19 27.165 159.335 26.43 159.625 25.72C159.925 25.01 160.355 24.38 160.915 23.83C161.485 23.28 162.18 22.84 163 22.51C163.83 22.18 164.78 22.015 165.85 22.015C167.05 22.015 168.14 22.205 169.12 22.585C170.11 22.965 170.98 23.515 171.73 24.235L171.025 25.615ZM175.239 42.1C175.239 41.84 175.284 41.595 175.374 41.365C175.474 41.135 175.604 40.935 175.764 40.765C175.934 40.595 176.134 40.46 176.364 40.36C176.594 40.26 176.839 40.21 177.099 40.21C177.359 40.21 177.604 40.26 177.834 40.36C178.064 40.46 178.264 40.595 178.434 40.765C178.604 40.935 178.739 41.135 178.839 41.365C178.939 41.595 178.989 41.84 178.989 42.1C178.989 42.37 178.939 42.62 178.839 42.85C178.739 43.07 178.604 43.265 178.434 43.435C178.264 43.605 178.064 43.735 177.834 43.825C177.604 43.925 177.359 43.975 177.099 43.975C176.839 43.975 176.594 43.925 176.364 43.825C176.134 43.735 175.934 43.605 175.764 43.435C175.604 43.265 175.474 43.07 175.374 42.85C175.284 42.62 175.239 42.37 175.239 42.1ZM200.824 22.255V43.75H199.369C199.139 43.75 198.944 43.71 198.784 43.63C198.634 43.55 198.484 43.415 198.334 43.225L185.899 27.025C185.919 27.275 185.934 27.52 185.944 27.76C185.954 28 185.959 28.225 185.959 28.435V43.75H183.409V22.255H184.909C185.039 22.255 185.149 22.265 185.239 22.285C185.329 22.295 185.409 22.32 185.479 22.36C185.549 22.39 185.619 22.44 185.689 22.51C185.759 22.57 185.834 22.65 185.914 22.75L198.349 38.935C198.329 38.675 198.309 38.425 198.289 38.185C198.279 37.935 198.274 37.7 198.274 37.48V22.255H200.824ZM214.389 35.185V43.75H211.479V35.185L203.604 22.255H206.154C206.414 22.255 206.619 22.32 206.769 22.45C206.919 22.57 207.049 22.73 207.159 22.93L212.079 31.285C212.259 31.635 212.424 31.965 212.574 32.275C212.724 32.575 212.854 32.88 212.964 33.19C213.074 32.88 213.199 32.575 213.339 32.275C213.479 31.965 213.634 31.635 213.804 31.285L218.709 22.93C218.799 22.76 218.924 22.605 219.084 22.465C219.244 22.325 219.449 22.255 219.699 22.255H222.264L214.389 35.185ZM238.987 39.31C239.147 39.31 239.287 39.375 239.407 39.505L240.562 40.75C239.682 41.77 238.612 42.565 237.352 43.135C236.102 43.705 234.587 43.99 232.807 43.99C231.267 43.99 229.867 43.725 228.607 43.195C227.347 42.655 226.272 41.905 225.382 40.945C224.492 39.975 223.802 38.815 223.312 37.465C222.822 36.115 222.577 34.63 222.577 33.01C222.577 31.39 222.832 29.905 223.342 28.555C223.852 27.205 224.567 26.045 225.487 25.075C226.417 24.105 227.527 23.355 228.817 22.825C230.107 22.285 231.532 22.015 233.092 22.015C234.622 22.015 235.972 22.26 237.142 22.75C238.312 23.24 239.342 23.905 240.232 24.745L239.272 26.08C239.212 26.18 239.132 26.265 239.032 26.335C238.942 26.395 238.817 26.425 238.657 26.425C238.477 26.425 238.257 26.33 237.997 26.14C237.737 25.94 237.397 25.72 236.977 25.48C236.557 25.24 236.032 25.025 235.402 24.835C234.772 24.635 233.997 24.535 233.077 24.535C231.967 24.535 230.952 24.73 230.032 25.12C229.112 25.5 228.317 26.055 227.647 26.785C226.987 27.515 226.472 28.405 226.102 29.455C225.732 30.505 225.547 31.69 225.547 33.01C225.547 34.35 225.737 35.545 226.117 36.595C226.507 37.645 227.032 38.535 227.692 39.265C228.362 39.985 229.147 40.535 230.047 40.915C230.957 41.295 231.937 41.485 232.987 41.485C233.627 41.485 234.202 41.45 234.712 41.38C235.232 41.3 235.707 41.18 236.137 41.02C236.577 40.86 236.982 40.66 237.352 40.42C237.732 40.17 238.107 39.875 238.477 39.535C238.647 39.385 238.817 39.31 238.987 39.31Z" fill="#102A43"/>
<defs>
<clipPath id="clip0">
<rect width="50" height="62.5" fill="white"/>
</clipPath>
</defs>
</svg>
