<svg width="225" height="50" viewBox="0 0 225 50" fill="none" xmlns="http://www.w3.org/2000/svg">
<path d="M12.425 11.467L16.517 19.21V50C11.011 50 5.505 50 0 50V19.21L4.092 11.467V0C6.87 0 9.648 0 12.426 0V11.467H12.425ZM2.84 39.192H13.677V26.336H2.84V39.192ZM13.676 42.032H2.84V47.158H13.677V42.032H13.676ZM9.584 2.841H6.932V12.156L2.84 19.9V23.495H13.677V19.9L9.585 12.156V2.841H9.584Z" fill="#5D55FA"/>
<path d="M50.835 33.56C50.995 33.56 51.135 33.625 51.255 33.755L52.41 35C51.53 36.02 50.46 36.815 49.2 37.385C47.95 37.955 46.435 38.24 44.655 38.24C43.115 38.24 41.715 37.975 40.455 37.445C39.195 36.905 38.12 36.155 37.23 35.195C36.34 34.225 35.65 33.065 35.16 31.715C34.67 30.365 34.425 28.88 34.425 27.26C34.425 25.64 34.68 24.155 35.19 22.805C35.7 21.455 36.415 20.295 37.335 19.325C38.265 18.355 39.375 17.605 40.665 17.075C41.955 16.535 43.38 16.265 44.94 16.265C46.47 16.265 47.82 16.51 48.99 17C50.16 17.49 51.19 18.155 52.08 18.995L51.12 20.33C51.06 20.43 50.98 20.515 50.88 20.585C50.79 20.645 50.665 20.675 50.505 20.675C50.325 20.675 50.105 20.58 49.845 20.39C49.585 20.19 49.245 19.97 48.825 19.73C48.405 19.49 47.88 19.275 47.25 19.085C46.62 18.885 45.845 18.785 44.925 18.785C43.815 18.785 42.8 18.98 41.88 19.37C40.96 19.75 40.165 20.305 39.495 21.035C38.835 21.765 38.32 22.655 37.95 23.705C37.58 24.755 37.395 25.94 37.395 27.26C37.395 28.6 37.585 29.795 37.965 30.845C38.355 31.895 38.88 32.785 39.54 33.515C40.21 34.235 40.995 34.785 41.895 35.165C42.805 35.545 43.785 35.735 44.835 35.735C45.475 35.735 46.05 35.7 46.56 35.63C47.08 35.55 47.555 35.43 47.985 35.27C48.425 35.11 48.83 34.91 49.2 34.67C49.58 34.42 49.955 34.125 50.325 33.785C50.495 33.635 50.665 33.56 50.835 33.56ZM69.0441 35.63L69.0291 38H55.7841V16.505H69.0291V18.875H58.6941V26.015H67.0641V28.295H58.6941V35.63H69.0441ZM85.2935 35.555V38H73.0985V16.505H75.9935V35.555H85.2935ZM100.704 35.555V38H88.5087V16.505H91.4037V35.555H100.704ZM115.334 30.02L111.959 21.275C111.859 21.015 111.754 20.715 111.644 20.375C111.534 20.025 111.429 19.655 111.329 19.265C111.119 20.075 110.904 20.75 110.684 21.29L107.309 30.02H115.334ZM121.394 38H119.144C118.884 38 118.674 37.935 118.514 37.805C118.354 37.675 118.234 37.51 118.154 37.31L116.144 32.12H106.499L104.489 37.31C104.429 37.49 104.314 37.65 104.144 37.79C103.974 37.93 103.764 38 103.514 38H101.264L109.859 16.505H112.799L121.394 38ZM130.177 26.915C131.017 26.915 131.757 26.815 132.397 26.615C133.047 26.405 133.587 26.115 134.017 25.745C134.457 25.365 134.787 24.915 135.007 24.395C135.227 23.875 135.337 23.3 135.337 22.67C135.337 21.39 134.917 20.425 134.077 19.775C133.237 19.125 131.977 18.8 130.297 18.8H127.117V26.915H130.177ZM140.107 38H137.527C136.997 38 136.607 37.795 136.357 37.385L130.777 29.705C130.607 29.465 130.422 29.295 130.222 29.195C130.032 29.085 129.732 29.03 129.322 29.03H127.117V38H124.222V16.505H130.297C131.657 16.505 132.832 16.645 133.822 16.925C134.812 17.195 135.627 17.59 136.267 18.11C136.917 18.63 137.397 19.26 137.707 20C138.017 20.73 138.172 21.55 138.172 22.46C138.172 23.22 138.052 23.93 137.812 24.59C137.572 25.25 137.222 25.845 136.762 26.375C136.312 26.895 135.757 27.34 135.097 27.71C134.447 28.08 133.707 28.36 132.877 28.55C133.247 28.76 133.567 29.065 133.837 29.465L140.107 38ZM154.025 19.865C153.935 20.015 153.835 20.13 153.725 20.21C153.625 20.28 153.5 20.315 153.35 20.315C153.18 20.315 152.98 20.23 152.75 20.06C152.52 19.89 152.23 19.705 151.88 19.505C151.54 19.295 151.125 19.105 150.635 18.935C150.155 18.765 149.57 18.68 148.88 18.68C148.23 18.68 147.655 18.77 147.155 18.95C146.665 19.12 146.25 19.355 145.91 19.655C145.58 19.955 145.33 20.31 145.16 20.72C144.99 21.12 144.905 21.555 144.905 22.025C144.905 22.625 145.05 23.125 145.34 23.525C145.64 23.915 146.03 24.25 146.51 24.53C147 24.81 147.55 25.055 148.16 25.265C148.78 25.465 149.41 25.675 150.05 25.895C150.7 26.115 151.33 26.365 151.94 26.645C152.56 26.915 153.11 27.26 153.59 27.68C154.08 28.1 154.47 28.615 154.76 29.225C155.06 29.835 155.21 30.585 155.21 31.475C155.21 32.415 155.05 33.3 154.73 34.13C154.41 34.95 153.94 35.665 153.32 36.275C152.71 36.885 151.955 37.365 151.055 37.715C150.165 38.065 149.15 38.24 148.01 38.24C146.61 38.24 145.34 37.99 144.2 37.49C143.06 36.98 142.085 36.295 141.275 35.435L142.115 34.055C142.195 33.945 142.29 33.855 142.4 33.785C142.52 33.705 142.65 33.665 142.79 33.665C142.92 33.665 143.065 33.72 143.225 33.83C143.395 33.93 143.585 34.06 143.795 34.22C144.005 34.38 144.245 34.555 144.515 34.745C144.785 34.935 145.09 35.11 145.43 35.27C145.78 35.43 146.175 35.565 146.615 35.675C147.055 35.775 147.55 35.825 148.1 35.825C148.79 35.825 149.405 35.73 149.945 35.54C150.485 35.35 150.94 35.085 151.31 34.745C151.69 34.395 151.98 33.98 152.18 33.5C152.38 33.02 152.48 32.485 152.48 31.895C152.48 31.245 152.33 30.715 152.03 30.305C151.74 29.885 151.355 29.535 150.875 29.255C150.395 28.975 149.845 28.74 149.225 28.55C148.605 28.35 147.975 28.15 147.335 27.95C146.695 27.74 146.065 27.5 145.445 27.23C144.825 26.96 144.275 26.61 143.795 26.18C143.315 25.75 142.925 25.215 142.625 24.575C142.335 23.925 142.19 23.125 142.19 22.175C142.19 21.415 142.335 20.68 142.625 19.97C142.925 19.26 143.355 18.63 143.915 18.08C144.485 17.53 145.18 17.09 146 16.76C146.83 16.43 147.78 16.265 148.85 16.265C150.05 16.265 151.14 16.455 152.12 16.835C153.11 17.215 153.98 17.765 154.73 18.485L154.025 19.865ZM158.239 36.35C158.239 36.09 158.284 35.845 158.374 35.615C158.474 35.385 158.604 35.185 158.764 35.015C158.934 34.845 159.134 34.71 159.364 34.61C159.594 34.51 159.839 34.46 160.099 34.46C160.359 34.46 160.604 34.51 160.834 34.61C161.064 34.71 161.264 34.845 161.434 35.015C161.604 35.185 161.739 35.385 161.839 35.615C161.939 35.845 161.989 36.09 161.989 36.35C161.989 36.62 161.939 36.87 161.839 37.1C161.739 37.32 161.604 37.515 161.434 37.685C161.264 37.855 161.064 37.985 160.834 38.075C160.604 38.175 160.359 38.225 160.099 38.225C159.839 38.225 159.594 38.175 159.364 38.075C159.134 37.985 158.934 37.855 158.764 37.685C158.604 37.515 158.474 37.32 158.374 37.1C158.284 36.87 158.239 36.62 158.239 36.35ZM183.824 16.505V38H182.369C182.139 38 181.944 37.96 181.784 37.88C181.634 37.8 181.484 37.665 181.334 37.475L168.899 21.275C168.919 21.525 168.934 21.77 168.944 22.01C168.954 22.25 168.959 22.475 168.959 22.685V38H166.409V16.505H167.909C168.039 16.505 168.149 16.515 168.239 16.535C168.329 16.545 168.409 16.57 168.479 16.61C168.549 16.64 168.619 16.69 168.689 16.76C168.759 16.82 168.834 16.9 168.914 17L181.349 33.185C181.329 32.925 181.309 32.675 181.289 32.435C181.279 32.185 181.274 31.95 181.274 31.73V16.505H183.824ZM197.389 29.435V38H194.479V29.435L186.604 16.505H189.154C189.414 16.505 189.619 16.57 189.769 16.7C189.919 16.82 190.049 16.98 190.159 17.18L195.079 25.535C195.259 25.885 195.424 26.215 195.574 26.525C195.724 26.825 195.854 27.13 195.964 27.44C196.074 27.13 196.199 26.825 196.339 26.525C196.479 26.215 196.634 25.885 196.804 25.535L201.709 17.18C201.799 17.01 201.924 16.855 202.084 16.715C202.244 16.575 202.449 16.505 202.699 16.505H205.264L197.389 29.435ZM221.987 33.56C222.147 33.56 222.287 33.625 222.407 33.755L223.562 35C222.682 36.02 221.612 36.815 220.352 37.385C219.102 37.955 217.587 38.24 215.807 38.24C214.267 38.24 212.867 37.975 211.607 37.445C210.347 36.905 209.272 36.155 208.382 35.195C207.492 34.225 206.802 33.065 206.312 31.715C205.822 30.365 205.577 28.88 205.577 27.26C205.577 25.64 205.832 24.155 206.342 22.805C206.852 21.455 207.567 20.295 208.487 19.325C209.417 18.355 210.527 17.605 211.817 17.075C213.107 16.535 214.532 16.265 216.092 16.265C217.622 16.265 218.972 16.51 220.142 17C221.312 17.49 222.342 18.155 223.232 18.995L222.272 20.33C222.212 20.43 222.132 20.515 222.032 20.585C221.942 20.645 221.817 20.675 221.657 20.675C221.477 20.675 221.257 20.58 220.997 20.39C220.737 20.19 220.397 19.97 219.977 19.73C219.557 19.49 219.032 19.275 218.402 19.085C217.772 18.885 216.997 18.785 216.077 18.785C214.967 18.785 213.952 18.98 213.032 19.37C212.112 19.75 211.317 20.305 210.647 21.035C209.987 21.765 209.472 22.655 209.102 23.705C208.732 24.755 208.547 25.94 208.547 27.26C208.547 28.6 208.737 29.795 209.117 30.845C209.507 31.895 210.032 32.785 210.692 33.515C211.362 34.235 212.147 34.785 213.047 35.165C213.957 35.545 214.937 35.735 215.987 35.735C216.627 35.735 217.202 35.7 217.712 35.63C218.232 35.55 218.707 35.43 219.137 35.27C219.577 35.11 219.982 34.91 220.352 34.67C220.732 34.42 221.107 34.125 221.477 33.785C221.647 33.635 221.817 33.56 221.987 33.56Z" fill="#102A43"/>
</svg>
